<svg xmlns="http://www.w3.org/2000/svg">

  <svg id="weather" data-name="weather" viewBox="0 0 28 28">
    <path d="M22.5,10.9c-1.1,0.3-2,0.8-1.9,2c0.1,1.3,1.1,1.7,2.2,1.8c0.1,4.6-3.7,9.9-7.9,11.3c-1.9,0.6-3.8-0.1-5.5-0.8
      C4.1,23,1.3,17.8,2.1,12.1C2.8,7,7.1,2.9,12.3,2c1.6-0.3,2.9,0,4.2,0.9C19.6,4.8,21.6,7.4,22.5,10.9z M13.9,16.4
      c0-1.3-1-2.3-2.3-2.3c-1.2,0-2.3,1-2.3,2.2c0,1.3,0.9,2.3,2.3,2.4C12.8,18.7,13.9,17.7,13.9,16.4z M14.3,6.7c0-0.8-0.5-1.3-1.2-1.2
      c-0.5,0.1-1,0.6-1.1,1.1c-0.2,0.7,0.3,1.2,1.1,1.2C13.9,7.9,14.3,7.4,14.3,6.7z" />
    <path d="M14,28C6.3,28,0,21.7,0,14S6.3,0,14,0s14,6.3,14,14S21.7,28,14,28z M14,2C7.4,2,2,7.4,2,14s5.4,12,12,12s12-5.4,12-12
      S20.6,2,14,2z" />
  </svg>

  <svg id="notification" data-name="notification" viewBox="0 0 26 28">
    <path d="M24.9,5.6c0.2-0.2,0.4-0.4,0.6-0.7c0.4-0.7,0.6-1.6,0.4-2.4c-0.2-0.8-0.7-1.6-1.5-2c-0.7-0.4-1.6-0.6-2.4-0.4
      c-0.8,0.2-1.5,0.7-2,1.5c-0.1,0.1-0.1,0.2-0.2,0.4c-4.4-1.1-7.6,2.7-9.9,5.4c-1,1.2-1.9,2.2-2.5,2.4C6.9,9.8,6.5,9.9,6.1,10
      c-2.8,0.7-4.7,1.1-5.5,2.4l0,0c-0.1,0.1-0.1,0.2-0.2,0.2c-0.8,1.3-0.2,3.2,1.6,5.4c1.6,2,4.1,4.1,7.1,5.8c0.4,1.2,1.2,2.2,2.3,2.9
      c0.8,0.5,1.8,0.8,2.7,0.8c0.4,0,0.9,0,1.3-0.2c0.3-0.1,0.5-0.1,0.7-0.2c1.7,0.5,3.1,0.8,4.3,0.8c1.5,0,2.6-0.4,3.2-1.3
      c0.1-0.1,0.1-0.2,0.1-0.3l0,0c0.8-1.3,0.3-3.2-0.4-6c-0.1-0.4-0.2-0.8-0.3-1.3c-0.1-0.6,0.4-1.9,1-3.3C25.1,12.9,26.8,8.9,24.9,5.6z
      M20.9,2.2c0.3-0.5,0.7-0.8,1.3-0.9c0.5-0.1,1.1,0,1.6,0.2c0.5,0.3,0.8,0.7,0.9,1.3c0.1,0.5,0,1.1-0.2,1.6c-0.1,0.1-0.2,0.2-0.3,0.3
      c-0.5-0.6-1.2-1.2-2-1.7c-0.4-0.3-0.9-0.5-1.3-0.6C20.9,2.3,20.9,2.2,20.9,2.2z M8.9,22.4C6.4,20.8,4.4,19,3,17.3
      c-1.4-1.7-2-3.2-1.5-4c0.5-0.8,2.1-1,4.3-0.5c2.5,0.5,5.4,1.8,8.3,3.5c0.5,0.3,0.9,0.6,1.3,0.9c-0.8-0.2-1.7-0.2-2.5,0
      c-1.4,0.3-2.5,1.2-3.3,2.4C9.1,20.4,8.9,21.4,8.9,22.4z M15.1,26.3c-1.1,0.3-2.2,0.1-3.1-0.5c-1.9-1.2-2.6-3.7-1.4-5.6
      c0.6-0.9,1.5-1.6,2.5-1.9c0.3-0.1,0.7-0.1,1-0.1c0.7,0,1.5,0.2,2.1,0.6c1.9,1.2,2.6,3.7,1.4,5.6C17.1,25.4,16.2,26,15.1,26.3z
      M22.6,26.1c-0.5,0.9-2.5,1-5.1,0.3c0.5-0.4,0.8-0.8,1.2-1.3c1-1.7,1-3.7,0.1-5.3c0.9,0.8,1.6,1.5,2.3,2.3
      C22.5,23.8,23,25.3,22.6,26.1z M22.9,15.4c-0.7,1.7-1.2,3.1-1,4c0.1,0.4,0.2,0.9,0.3,1.3c0.1,0.5,0.2,0.9,0.3,1.3
      c-0.2-0.2-0.4-0.5-0.6-0.7c-1.7-2-4.3-4.2-7.3-6c-3-1.8-6.1-3.1-8.7-3.7c-0.3-0.1-0.6-0.1-0.9-0.2c0.4-0.1,0.9-0.2,1.3-0.3
      c0.4-0.1,0.8-0.2,1.3-0.3c1-0.2,1.9-1.4,3.1-2.8c2.7-3.1,6-7,10.8-4.1C26.3,6.9,24.4,11.6,22.9,15.4z" />
    <path d="M22.6,26.1c-0.5,0.9-2.5,1-5.1,0.3c0.5-0.4,0.8-0.8,1.2-1.3c1-1.7,1-3.7,0.1-5.3c0.9,0.8,1.6,1.5,2.3,2.3
      C22.5,23.8,23,25.3,22.6,26.1z" />
    <path d="M15.4,17.2c-0.8-0.2-1.7-0.2-2.5,0c-1.4,0.3-2.5,1.2-3.3,2.4c-0.5,0.9-0.8,1.8-0.8,2.8C6.4,20.8,4.4,19,3,17.3
      c-1.4-1.7-2-3.2-1.5-4c0.5-0.8,2.1-1,4.3-0.5c2.5,0.5,5.4,1.8,8.3,3.5C14.5,16.6,14.9,16.9,15.4,17.2z" />
  </svg>

  <svg id="sunny" data-name="sunny" viewBox="0 0 24 24"><path d="M 11.875 0.1875 C 11.371094 0.25 10.996094 0.679688 11 1.1875 L 11 3.1875 C 10.996094 3.546875 11.183594 3.882813 11.496094 4.066406 C 11.808594 4.246094 12.191406 4.246094 12.503906 4.066406 C 12.816406 3.882813 13.003906 3.546875 13 3.1875 L 13 1.1875 C 13.003906 0.898438 12.878906 0.625 12.664063 0.433594 C 12.449219 0.242188 12.160156 0.152344 11.875 0.1875 Z M 4 3.375 C 3.625 3.441406 3.324219 3.714844 3.21875 4.078125 C 3.113281 4.445313 3.222656 4.835938 3.5 5.09375 L 4.90625 6.5 C 5.148438 6.796875 5.535156 6.933594 5.910156 6.847656 C 6.28125 6.761719 6.574219 6.46875 6.660156 6.097656 C 6.746094 5.722656 6.609375 5.335938 6.3125 5.09375 L 4.90625 3.6875 C 4.71875 3.488281 4.460938 3.378906 4.1875 3.375 C 4.15625 3.375 4.125 3.375 4.09375 3.375 C 4.0625 3.375 4.03125 3.375 4 3.375 Z M 19.6875 3.375 C 19.460938 3.40625 19.25 3.519531 19.09375 3.6875 L 17.6875 5.09375 C 17.390625 5.335938 17.253906 5.722656 17.339844 6.097656 C 17.425781 6.46875 17.71875 6.761719 18.089844 6.847656 C 18.464844 6.933594 18.851563 6.796875 19.09375 6.5 L 20.5 5.09375 C 20.796875 4.808594 20.886719 4.367188 20.726563 3.988281 C 20.570313 3.609375 20.191406 3.367188 19.78125 3.375 C 19.75 3.375 19.71875 3.375 19.6875 3.375 Z M 12 5.1875 C 8.15625 5.1875 5 8.34375 5 12.1875 C 5 16.03125 8.15625 19.1875 12 19.1875 C 15.84375 19.1875 19 16.03125 19 12.1875 C 19 8.34375 15.84375 5.1875 12 5.1875 Z M 12 7.1875 C 14.753906 7.1875 17 9.433594 17 12.1875 C 17 14.941406 14.753906 17.1875 12 17.1875 C 9.246094 17.1875 7 14.941406 7 12.1875 C 7 9.433594 9.246094 7.1875 12 7.1875 Z M 0.8125 11.1875 C 0.261719 11.238281 -0.144531 11.730469 -0.09375 12.28125 C -0.0429688 12.832031 0.449219 13.238281 1 13.1875 L 3 13.1875 C 3.359375 13.191406 3.695313 13.003906 3.878906 12.691406 C 4.058594 12.378906 4.058594 11.996094 3.878906 11.683594 C 3.695313 11.371094 3.359375 11.183594 3 11.1875 L 1 11.1875 C 0.96875 11.1875 0.9375 11.1875 0.90625 11.1875 C 0.875 11.1875 0.84375 11.1875 0.8125 11.1875 Z M 20.8125 11.1875 C 20.261719 11.238281 19.855469 11.730469 19.90625 12.28125 C 19.957031 12.832031 20.449219 13.238281 21 13.1875 L 23 13.1875 C 23.359375 13.191406 23.695313 13.003906 23.878906 12.691406 C 24.058594 12.378906 24.058594 11.996094 23.878906 11.683594 C 23.695313 11.371094 23.359375 11.183594 23 11.1875 L 21 11.1875 C 20.96875 11.1875 20.9375 11.1875 20.90625 11.1875 C 20.875 11.1875 20.84375 11.1875 20.8125 11.1875 Z M 5.46875 17.59375 C 5.25 17.632813 5.054688 17.742188 4.90625 17.90625 L 3.5 19.28125 C 3.101563 19.667969 3.097656 20.304688 3.484375 20.703125 C 3.871094 21.101563 4.507813 21.105469 4.90625 20.71875 L 6.3125 19.3125 C 6.636719 19.011719 6.722656 18.535156 6.527344 18.140625 C 6.335938 17.742188 5.902344 17.523438 5.46875 17.59375 Z M 18.1875 17.59375 C 17.8125 17.660156 17.511719 17.933594 17.40625 18.296875 C 17.300781 18.664063 17.410156 19.054688 17.6875 19.3125 L 19.09375 20.71875 C 19.492188 21.105469 20.128906 21.101563 20.515625 20.703125 C 20.902344 20.304688 20.898438 19.667969 20.5 19.28125 L 19.09375 17.90625 C 18.886719 17.683594 18.585938 17.570313 18.28125 17.59375 C 18.25 17.59375 18.21875 17.59375 18.1875 17.59375 Z M 11.875 20.1875 C 11.371094 20.25 10.996094 20.679688 11 21.1875 L 11 23.1875 C 10.996094 23.546875 11.183594 23.882813 11.496094 24.066406 C 11.808594 24.246094 12.191406 24.246094 12.503906 24.066406 C 12.816406 23.882813 13.003906 23.546875 13 23.1875 L 13 21.1875 C 13.003906 20.898438 12.878906 20.625 12.664063 20.433594 C 12.449219 20.242188 12.160156 20.152344 11.875 20.1875 Z" /></svg>

  <svg id="rainy" data-name="rainy" viewBox="0 0 24 24">
    <path d="M3.9,15.6c-1,0-1.8,0-2.7,0c-0.2,0-0.5-0.4-0.6-0.6c-1.5-3.2-0.4-7,2.6-9C3.6,5.7,4,5.3,4.1,5C5.4,1.8,8.7-0.3,11.9,0
      c3.7,0.4,6.5,2.8,7.1,6.4c0.1,0.7,0.4,1,1.1,1.2c2.8,1,4.4,3.9,3.7,6.7c-0.8,0-1.5,0-2.4,0c0.3-1.4,0.1-2.7-1-3.7
      c-1.1-1.1-2.4-1-3.8-1c0-0.9,0.1-1.8,0-2.6c-0.3-2.6-2.5-4.5-5.1-4.6C9,2.4,6.7,4.1,6.2,6.6C6,7.1,5.8,7.4,5.3,7.6
      c-3,1.4-3.9,4.9-1.8,7.5C3.7,15.2,3.7,15.4,3.9,15.6z" />
    <path d="M10.7,18c-0.8,0-1.5,0-2.3,0c0-1.2,0-2.3,0-3.5c0.8,0,1.5,0,2.3,0C10.7,15.7,10.7,16.8,10.7,18z" />
    <path d="M13.2,16.9c0.8,0,1.5,0,2.3,0c0,1.2,0,2.3,0,3.5c-0.8,0-1.5,0-2.3,0C13.2,19.2,13.2,18.1,13.2,16.9z" />
    <path d="M20.4,14.5c0,1.2,0,2.3,0,3.5c-0.7,0-1.5,0-2.3,0c0-1.2,0-2.3,0-3.5C18.8,14.5,19.6,14.5,20.4,14.5z" />
    <path d="M3.7,20.4c0-1.2,0-2.3,0-3.5c0.8,0,1.5,0,2.3,0c0,1.2,0,2.3,0,3.5C5.2,20.4,4.5,20.4,3.7,20.4z" />
    <path d="M13.2,24c0-0.8,0-1.5,0-2.3c0.8,0,1.5,0,2.3,0c0,0.8,0,1.5,0,2.3C14.8,24,14,24,13.2,24z" />
    <path d="M10.8,21.6c-0.8,0-1.5,0-2.3,0c0-0.8,0-1.5,0-2.3c0.8,0,1.5,0,2.3,0C10.8,20,10.8,20.8,10.8,21.6z" />
    <path d="M5.9,24c-0.8,0-1.5,0-2.3,0c0-0.8,0-1.5,0-2.3c0.8,0,1.5,0,2.3,0C5.9,22.4,5.9,23.2,5.9,24z" />
    <path d="M20.4,19.3c0,0.8,0,1.5,0,2.3c-0.7,0-1.5,0-2.3,0c0-0.7,0-1.5,0-2.3C18.8,19.3,19.5,19.3,20.4,19.3z" />
  </svg>

  <svg id="windy" data-name="windy" viewBox="0 0 24 24">
    <path d="M9.6,15.7c0-0.5,0-0.9,0-1.5c0.3,0,0.5,0,0.8,0c1.9,0,3.8,0,5.6,0c0.5,0,1-0.1,1-0.8c0-0.6-0.5-0.7-1-0.7
      c-0.6,0-1.1,0-1.7,0c0.3-1,1.2-1.6,2.2-1.5c1,0.1,2,1,2,2c0.1,1.4-0.7,2.5-2.1,2.5C14.1,15.7,11.9,15.7,9.6,15.7z"/>
    <path d="M10.3,21.4c0.6,0,1.2,0,1.7,0c0.5,0,0.9-0.2,0.9-0.8c0-0.6-0.5-0.7-1-0.7c-1.8,0-3.7,0-5.5,0c-1,0-1,0-1-1
      c0-0.1,0-0.3,0.1-0.5c1,0,2,0,2.9,0c1.3,0,2.6,0,3.8,0c1.2,0,2,0.8,2.1,2c0.1,1.1-0.5,2.1-1.6,2.4c-1,0.3-2.1-0.2-2.6-1.2
      C10.2,21.5,10.3,21.5,10.3,21.4z"/>
    <path d="M22.8,10c-0.2-0.2-0.3-0.5-0.3-0.6c0.1-1.5-0.3-2.9-1.2-3.8c-0.9-1-2.2-1.5-3.6-1.5c-0.3,0-0.5-0.1-0.7-0.4
      c-1.3-1.8-3.1-2.7-5.2-2.6c-2.6,0.1-4.5,1.5-5.5,4C6.2,5.4,5.9,5.6,5.7,5.7C4.4,6.2,3.6,7,3.2,8.3C3,8.7,2.9,8.9,2.5,9
      C0.8,9.9-0.2,11.8,0,13.7c0.2,2,1.7,3.7,3.5,4c0.5,0.1,1.1,0.1,1.7,0.2v-1.9c-0.1,0-0.2,0-0.3,0c0,0,0,0,0,0c-0.8,0-1.5-0.2-2-0.7
      c-0.8-0.7-1.1-1.6-0.8-2.5c0.2-1.1,0.9-1.8,1.9-2c0.5-0.1,1-0.3,1-1.2c0-1.1,0.8-1.8,2-1.8c0.6,0,0.9-0.2,1-0.8
      c0.3-1.8,1.3-2.9,2.9-3.4c1.7-0.5,3.1-0.1,4.3,1.2c0.3,0.3,0.5,0.7,0.7,1.1C16,5.9,16.1,6,16.2,6.2l0.1,0.2L17,6.2
      c1.2-0.3,2.1-0.1,2.8,0.7c0.8,0.8,1,1.8,0.6,2.8c-0.3,0.7,0.1,1,0.5,1.3c0.8,0.6,1.2,1.4,1.2,2.4c-0.1,0.9-0.6,1.8-1.5,2.2
      c-0.1,0.1-0.2,0.1-0.4,0.2l-0.4,0.2l0.8,1.6l0.2-0.1c1.5-0.5,2.6-1.6,3.1-3.1C24.3,12.8,23.9,11.2,22.8,10z"/>
    <rect x="4" y="12.1" width="6" height="1"/>
    <rect x="11.5" y="16.6" width="7" height="1"/>
  </svg>

  <svg id="cloudy" data-name="cloudy" viewBox="0 0 24 24">
    <path d="M19.5,12.9c1.8,0.9,3,2.2,3.4,4.2c0.6,3.3-1.9,6.3-5.3,6.4c-4.1,0.1-8.2,0.1-12.3,0c-2.4,0-4.1-1.3-5-3.5
      c-0.9-2.2-0.3-4.1,1.2-5.8c0.3-0.3,0.5-0.6,0.6-1c0.9-3.1,2.9-4.9,6.1-5.6C8.6,7.5,8.9,7.4,9,7.2c1.9-2.6,5-3.4,7.7-2
      c2.7,1.4,3.9,4.4,2.9,7.5C19.6,12.7,19.6,12.7,19.5,12.9z M15.1,14.9c-0.1-0.3-0.2-0.8-0.3-1.3c-0.7-2.7-3-4.2-6-4
      C6.6,9.6,4.5,11.7,4,14.2c-0.1,0.3-0.3,0.7-0.5,0.9C2.4,15.9,1.9,17,2,18.3c0.2,1.9,1.6,3.1,3.6,3.1c3.9,0,7.8,0,11.7,0
      c0.2,0,0.4,0,0.6,0c1.7-0.2,2.9-1.6,3-3.3c0.1-1.8-1.1-3.3-2.8-3.5C17.2,14.5,16.2,14.8,15.1,14.9z M11.2,7.7c3,1.1,3.5,1.6,5.4,5
      c0.3-0.2,0.7-0.3,0.9-0.6c0.9-1.6,0.4-3.8-1.2-4.9C14.8,6.1,12.6,6.3,11.2,7.7z" />
    <path d="M22.4,11.5c-0.2,0-0.4,0-0.6,0c-0.6-0.1-0.9-0.4-0.9-1c0-0.6,0.4-0.9,0.9-0.9c0.4,0,0.7,0,1.1,0c0.7,0,1,0.4,1,1
      c0,0.6-0.4,1-1.1,1C22.8,11.5,22.6,11.5,22.4,11.5C22.4,11.5,22.4,11.5,22.4,11.5z" />
    <path d="M20.6,3.1c0.1,0.1,0.5,0.2,0.6,0.5c0.1,0.3,0.1,0.8,0,1c-0.2,0.4-0.6,0.8-1,1c-0.3,0.2-0.7,0.2-1,0
      c-0.2-0.1-0.5-0.5-0.5-0.8C18.6,4.3,19.8,3.1,20.6,3.1z" />
    <path d="M7.3,3.1c0.8,0,2.1,1.1,2,1.7c0,0.3-0.3,0.7-0.5,0.9c-0.3,0.1-0.7,0.1-1-0.1c-0.4-0.2-0.7-0.6-1-1c-0.2-0.3-0.2-0.7-0.1-1
      C6.8,3.4,7.2,3.2,7.3,3.1z" />
    <path d="M15,2c0,0.2,0,0.4,0,0.6c-0.1,0.5-0.4,0.8-0.9,0.9c-0.6,0-0.9-0.3-1-0.8c-0.1-0.4,0-0.8,0-1.2c0-0.6,0.4-1,1-1
      c0.6,0,0.9,0.4,1,1C15,1.7,15,1.8,15,2C15,2,15,2,15,2z" />
  </svg>

  <svg id="haze" data-name="haze" viewBox="0 0 24 24">
    <path d="M9.7,18.5c0-0.7,0-1.2,0-1.9c0.7,0,1.3,0,2,0c2.1-0.1,3.9-1.5,4.3-3.6c0.5-2-0.4-4.1-2.3-5.1c-1.8-1-4-0.7-5.5,0.8
      C8.2,8.8,8.1,9,7.9,9.2c0.6,0,1.1,0,1.7,0c0,0.6,0,1.2,0,1.8c-3,0-6.1,0-9.1,0c0-0.6,0-1.2,0-1.8c1.5,0,3,0,4.5,0
      c0.5,0,0.8-0.1,1-0.5c1.7-2.8,4.8-3.8,7.7-2.8c3,1.1,4.7,4,4.2,7.2c-0.5,3-3,5.2-6.2,5.4C11.1,18.5,10.4,18.5,9.7,18.5z" />
    <path d="M12.4,13c0,0.6,0,1.1,0,1.7c-3,0-6.1,0-9.1,0c0-0.6,0-1.1,0-1.7C6.3,13,9.3,13,12.4,13z" />
    <path d="M0.5,18.4c0-0.6,0-1.2,0-1.8c2.4,0,4.8,0,7.3,0c0,0.6,0,1.1,0,1.8C5.3,18.4,2.9,18.4,0.5,18.4z" />
    <path d="M2.4,4.1c0.4-0.4,0.8-0.8,1.2-1.2C4.7,3.9,5.8,5,6.9,6.1C6.5,6.5,6,6.9,5.6,7.2C4.6,6.2,3.6,5.2,2.4,4.1z" />
    <path d="M16.3,6.1c1-1,2.1-2.1,3.2-3.2c0.4,0.4,0.7,0.8,1.1,1.2c-1.1,1-2.1,2.1-3.3,3.2C17,6.9,16.6,6.5,16.3,6.1z" />
    <path d="M20.6,19.9c-0.4,0.4-0.8,0.8-1.2,1.2c-1.1-1.1-2.1-2.2-3.2-3.3c0.3-0.3,0.8-0.7,1.2-1.1C18.5,17.7,19.5,18.8,20.6,19.9z" />
    <path d="M10.6,4.5c0-1.5,0-3,0-4.5c0.6,0,1.1,0,1.7,0c0,1.5,0,3,0,4.5C11.8,4.5,11.3,4.5,10.6,4.5z" />
    <path d="M23.5,11.1c0,0.6,0,1.1,0,1.7c-1.5,0-3,0-4.6,0c0-0.5,0-1.1,0-1.7C20.5,11.1,22,11.1,23.5,11.1z" />
    <path d="M12.4,24c-0.6,0-1.1,0-1.7,0c0-1.5,0-3,0-4.6c0.5,0,1.1,0,1.7,0C12.4,20.9,12.4,22.4,12.4,24z" />
  </svg>

</svg>