<svg xmlns="http://www.w3.org/2000/svg">
	<svg id="mapPin" data-name="mapPin" viewBox="0 0 24 41">
		<path d="M10.3,23.9c-3.1-0.6-5.6-2-7.6-4.4c-2.9-3.5-3.5-8.9-1.3-13c2.3-4.3,7-6.9,11.6-6.4c6,0.6,10.5,5,11,10.9
			c0.5,5.8-3.1,10.9-9,12.6c-1,0.3-1.2,0.7-1.2,1.7c0,4.3,0,8.7,0,13c0,0.4,0.1,1-0.1,1.3C13.2,40.1,12.6,41,12,41
			c-0.6,0-1.2-0.9-1.7-1.5c-0.2-0.3-0.1-1-0.1-1.5C10.3,33.4,10.3,28.7,10.3,23.9z M12.1,4.1c-2.1,0-3.9,1.1-3.9,2.4
			c0,1.4,1.8,2.6,3.9,2.6c2.1,0,3.8-1.3,3.8-2.6C15.8,5.2,14.1,4.1,12.1,4.1z" fill="#23394F" />
	</svg>
</svg>
